# xmcd CD database file
#
# Track frame offsets:
#	150
#	2855
#	16472
#	34993
#	47328
#	59671
#	72358
#	84246
#	97818
#	118350
#	131594
#	144462
#	161371
#
# Disc length: 2380 seconds
#
# Revision: 0
# Processed by: cddbd v1.5.2PL0 Copyright (c) Steve Scherf et al.
# Submitted via: CDex 1.70beta2
#
DISCID=ab094a0d
DTITLE=Lily Bee - Daydream At Midnight
DYEAR=2010
DGENRE=Jazz
TTITLE0=Intro
TTITLE1=Daydream At Midnight
TTITLE2=They Don' t Make ' em Like You
TTITLE3=I Wouldn' t Mind
TTITLE4=Up
TTITLE5=Days Like These
TTITLE6=Don' t Be Surprised
TTITLE7=Sailboad
TTITLE8=Senior Letter
TTITLE9=Down To The Riverside Now
TTITLE10=Home
TTITLE11=Where The Meanings Are
TTITLE12=Sound The Alarm
EXTD=YEAR: 2010
EXTT0=
EXTT1=
EXTT2=
EXTT3=
EXTT4=
EXTT5=
EXTT6=
EXTT7=
EXTT8=
EXTT9=
EXTT10=
EXTT11=
EXTT12=
PLAYORDER=
